<?xml version="1.0" encoding="UTF-8"?>
<!DOCTYPE svg PUBLIC "-//W3C//DTD SVG 1.1//EN" "http://www.w3.org/Graphics/SVG/1.1/DTD/svg11.dtd">
<!-- Creator: CorelDRAW X8 -->
<svg xmlns="http://www.w3.org/2000/svg" xml:space="preserve" width="236px" height="83px" version="1.1" style="shape-rendering:geometricPrecision; text-rendering:geometricPrecision; image-rendering:optimizeQuality; fill-rule:evenodd; clip-rule:evenodd"
viewBox="0 0 236 83"
 xmlns:xlink="http://www.w3.org/1999/xlink">
 <defs>
  <style type="text/css">
   <![CDATA[
    .str1 {stroke:#FEFEFE;stroke-width:1.28977;stroke-linecap:round}
    .str0 {stroke:#C4C4C4;stroke-width:2.57954;stroke-linecap:round}
    .fil0 {fill:none;fill-rule:nonzero}
    .fil1 {fill:#181716;fill-rule:nonzero}
    .fil2 {fill:#FDA20C;fill-rule:nonzero}
   ]]>
  </style>
 </defs>
 <g id="Camada_x0020_1">
  <metadata id="CorelCorpID_0Corel-Layer"/>
  <g id="_1547624842224">
   <g>
    <path class="fil0 str0" d="M64 5c10,0 16,4 16,13l0 18c0,9 -6,13 -16,13l-16 0 0 -44 16 0zm6 13c0,-4 -2,-5 -6,-5l-7 0 0 28 7 0c4,0 6,-1 6,-5l0 -18zm22 18l0 13 -9 0 0 -26c0,-8 5,-15 15,-19 11,4 16,11 16,19l0 26 -9 0 0 -13 -13 0zm13 -7l0 -9c0,-1 -3,-3 -7,-6 -4,3 -6,5 -6,6l0 9 13 0zm23 -6l0 26 -10 0 0 -44 11 0 11 26 0 -26 10 0 0 44 -11 0 -11 -26zm37 -18l0 44 -9 0 0 -44 9 0zm6 36l0 -36 10 0 0 36 18 0 0 8 -28 0 0 -8 0 0zm50 -5l0 -18c0,-4 -2,-5 -6,-5 -4,0 -6,1 -6,5l0 18c0,4 2,5 6,5 4,0 6,-1 6,-5zm-22 0l0 -18c0,-9 6,-13 16,-13 11,0 16,4 16,13l0 18c0,9 -5,13 -16,13 -10,0 -16,-4 -16,-13zm-151 38l0 -16 5 0 -1 16 9 0 0 4 -13 0 0 -4 0 0zm62 -16l0 14c0,2 1,2 3,2 2,0 3,0 3,-2l0 -14 4 0 0 14c0,4 -2,6 -7,6 -5,0 -7,-2 -7,-6l0 -14 4 0zm62 0l0 20 -5 0 0 -20 5 0zm51 16l10 0 0 4 -15 0 0 -4 9 -13 -9 0 0 -3 15 0 0 3 -10 13z"/>
    <path id="1" class="fil1" d="M64 5c10,0 16,4 16,13l0 18c0,9 -6,13 -16,13l-16 0 0 -44 16 0zm6 13c0,-4 -2,-5 -6,-5l-7 0 0 28 7 0c4,0 6,-1 6,-5l0 -18zm22 18l0 13 -9 0 0 -26c0,-8 5,-15 15,-19 11,4 16,11 16,19l0 26 -9 0 0 -13 -13 0zm13 -7l0 -9c0,-1 -3,-3 -7,-6 -4,3 -6,5 -6,6l0 9 13 0zm23 -6l0 26 -10 0 0 -44 11 0 11 26 0 -26 10 0 0 44 -11 0 -11 -26zm37 -18l0 44 -9 0 0 -44 9 0zm6 36l0 -36 10 0 0 36 18 0 0 8 -28 0 0 -8 0 0zm50 -5l0 -18c0,-4 -2,-5 -6,-5 -4,0 -6,1 -6,5l0 18c0,4 2,5 6,5 4,0 6,-1 6,-5zm-22 0l0 -18c0,-9 6,-13 16,-13 11,0 16,4 16,13l0 18c0,9 -5,13 -16,13 -10,0 -16,-4 -16,-13zm-151 38l0 -16 5 0 -1 16 9 0 0 4 -13 0 0 -4 0 0zm62 -16l0 14c0,2 1,2 3,2 2,0 3,0 3,-2l0 -14 4 0 0 14c0,4 -2,6 -7,6 -5,0 -7,-2 -7,-6l0 -14 4 0zm62 0l0 20 -5 0 0 -20 5 0zm51 16l10 0 0 4 -15 0 0 -4 9 -13 -9 0 0 -3 15 0 0 3 -10 13z"/>
   </g>
   <g>
    <path class="fil0 str1" d="M64 5c10,0 16,4 16,13l0 18c0,9 -6,13 -16,13l-16 0 0 -44 16 0zm6 13c0,-4 -2,-5 -6,-5l-7 0 0 28 7 0c4,0 6,-1 6,-5l0 -18zm22 18l0 13 -9 0 0 -26c0,-8 5,-15 15,-19 11,4 16,11 16,19l0 26 -9 0 0 -13 -13 0zm13 -7l0 -9c0,-1 -3,-3 -7,-6 -4,3 -6,5 -6,6l0 9 13 0zm23 -6l0 26 -10 0 0 -44 11 0 11 26 0 -26 10 0 0 44 -11 0 -11 -26zm37 -18l0 44 -9 0 0 -44 9 0zm6 36l0 -36 10 0 0 36 18 0 0 8 -28 0 0 -8 0 0zm50 -5l0 -18c0,-4 -2,-5 -6,-5 -4,0 -6,1 -6,5l0 18c0,4 2,5 6,5 4,0 6,-1 6,-5zm-22 0l0 -18c0,-9 6,-13 16,-13 11,0 16,4 16,13l0 18c0,9 -5,13 -16,13 -10,0 -16,-4 -16,-13zm-151 38l0 -16 5 0 -1 16 9 0 0 4 -13 0 0 -4 0 0zm62 -16l0 14c0,2 1,2 3,2 2,0 3,0 3,-2l0 -14 4 0 0 14c0,4 -2,6 -7,6 -5,0 -7,-2 -7,-6l0 -14 4 0zm62 0l0 20 -5 0 0 -20 5 0zm51 16l10 0 0 4 -15 0 0 -4 9 -13 -9 0 0 -3 15 0 0 3 -10 13z"/>
    <path id="1" class="fil1" d="M64 5c10,0 16,4 16,13l0 18c0,9 -6,13 -16,13l-16 0 0 -44 16 0zm6 13c0,-4 -2,-5 -6,-5l-7 0 0 28 7 0c4,0 6,-1 6,-5l0 -18zm22 18l0 13 -9 0 0 -26c0,-8 5,-15 15,-19 11,4 16,11 16,19l0 26 -9 0 0 -13 -13 0zm13 -7l0 -9c0,-1 -3,-3 -7,-6 -4,3 -6,5 -6,6l0 9 13 0zm23 -6l0 26 -10 0 0 -44 11 0 11 26 0 -26 10 0 0 44 -11 0 -11 -26zm37 -18l0 44 -9 0 0 -44 9 0zm6 36l0 -36 10 0 0 36 18 0 0 8 -28 0 0 -8 0 0zm50 -5l0 -18c0,-4 -2,-5 -6,-5 -4,0 -6,1 -6,5l0 18c0,4 2,5 6,5 4,0 6,-1 6,-5zm-22 0l0 -18c0,-9 6,-13 16,-13 11,0 16,4 16,13l0 18c0,9 -5,13 -16,13 -10,0 -16,-4 -16,-13zm-151 38l0 -16 5 0 -1 16 9 0 0 4 -13 0 0 -4 0 0zm62 -16l0 14c0,2 1,2 3,2 2,0 3,0 3,-2l0 -14 4 0 0 14c0,4 -2,6 -7,6 -5,0 -7,-2 -7,-6l0 -14 4 0zm62 0l0 20 -5 0 0 -20 5 0zm51 16l10 0 0 4 -15 0 0 -4 9 -13 -9 0 0 -3 15 0 0 3 -10 13z"/>
   </g>
   <path class="fil2" d="M3 32l11 0c0,13 0,26 0,38l20 0 0 9 -31 0c0,-16 0,-32 0,-47zm0 -4l0 -24 17 0c12,0 17,5 17,14l0 20c0,9 -5,13 -17,13l-3 0 0 -8 3 0c5,0 7,-2 7,-5l0 -20c0,-4 -2,-5 -7,-5l-6 0 0 15 -11 0z"/>
  </g>
 </g>
</svg>
